<?xml version="1.0" encoding="utf-8"?>
<!-- Generator: Adobe Illustrator 23.0.4, SVG Export Plug-In . SVG Version: 6.00 Build 0)  -->
<svg version="1.1" id="Layer_1" xmlns="http://www.w3.org/2000/svg" xmlns:xlink="http://www.w3.org/1999/xlink" x="0px" y="0px"
	 viewBox="0 0 146.36 30" style="enable-background:new 0 0 146.36 30;" xml:space="preserve">
<style type="text/css">
	.st0{fill:#FC4C02;}
</style>
<path class="st0" d="M26.73,16.29c0.54,0.94,0.82,2.08,0.82,3.43v0.08c0,1.39-0.28,2.65-0.84,3.77c-0.56,1.12-1.35,2.06-2.36,2.84
	c-1.02,0.77-2.25,1.37-3.7,1.79c-1.45,0.42-3.07,0.63-4.87,0.63c-2.72,0-5.25-0.38-7.6-1.12c-2.35-0.75-4.37-1.87-6.07-3.37
	l4.76-5.67c1.45,1.12,2.97,1.92,4.57,2.4c1.6,0.48,3.19,0.72,4.76,0.72c0.81,0,1.4-0.1,1.75-0.3c0.36-0.2,0.53-0.48,0.53-0.84v-0.08
	c0-0.38-0.26-0.71-0.78-0.95c-0.52-0.25-1.49-0.52-2.91-0.8c-1.5-0.31-2.93-0.66-4.28-1.07c-1.36-0.4-2.55-0.93-3.58-1.56
	c-1.03-0.63-1.85-1.44-2.46-2.4c-0.61-0.97-0.91-2.15-0.91-3.54v-0.08c0-1.27,0.25-2.45,0.74-3.54c0.49-1.09,1.22-2.05,2.17-2.86
	c0.95-0.81,2.14-1.45,3.55-1.91c1.4-0.46,3.02-0.68,4.86-0.68c2.59,0,4.85,0.31,6.8,0.92c1.94,0.6,3.69,1.52,5.24,2.74l-4.34,6.02
	c-1.27-0.92-2.61-1.58-4.02-2c-1.41-0.42-2.73-0.63-3.98-0.63c-0.66,0-1.15,0.1-1.46,0.31c-0.32,0.2-0.48,0.47-0.48,0.8V9.4
	c0,0.36,0.24,0.66,0.72,0.92c0.48,0.25,1.42,0.52,2.82,0.8c1.7,0.3,3.25,0.67,4.65,1.1c1.39,0.44,2.6,0.99,3.6,1.66
	C25.41,14.55,26.18,15.35,26.73,16.29z M27.05,9.21h7.85v19.12h8.92V9.21h7.85V1.67H27.05V9.21z M130.47,0l-14.35,28.33h8.54
	l5.81-11.47l5.81,11.47h8.54L130.47,0z M90.53,0l14.35,28.33h-8.54l-5.81-11.47l-5.8,11.47h-5.8h-2.74h-7.43l-5.03-7.62h-0.07h-1.83
	v7.62h-8.91V1.67h13.03c2.39,0,4.35,0.27,5.88,0.82c1.54,0.55,2.77,1.29,3.71,2.23c0.81,0.81,1.42,1.73,1.83,2.74
	c0.4,1.02,0.61,2.21,0.61,3.58v0.08c0,1.95-0.47,3.6-1.41,4.95c-0.94,1.35-2.22,2.42-3.85,3.2l4.63,6.76L90.53,0z M69.1,11.68
	c0-0.86-0.31-1.5-0.92-1.92c-0.61-0.42-1.44-0.63-2.47-0.63h-3.89v5.22h3.85c1.07,0,1.91-0.23,2.51-0.69
	c0.61-0.46,0.92-1.09,0.92-1.91V11.68z M116.31,1.67l-5.81,11.47l-5.81-11.47h-8.54L110.51,30l14.34-28.33H116.31z"/>
</svg>
